<?xml version="1.0" standalone="no"?>
<!DOCTYPE svg PUBLIC "-//W3C//DTD SVG 20010904//EN"
 "http://www.w3.org/TR/2001/REC-SVG-20010904/DTD/svg10.dtd">
<svg version="1.0" xmlns="http://www.w3.org/2000/svg"
 width="225.000000pt" height="225.000000pt" viewBox="0 0 225.000000 225.000000"
 preserveAspectRatio="xMidYMid meet">

<g transform="translate(0.000000,225.000000) scale(0.100000,-0.100000)"
fill="#000000" stroke="none">
<path d="M1010 2188 c-61 -19 -116 -49 -132 -72 -10 -15 2 -28 20 -21 8 3 19
1 22 -6 5 -7 24 -2 61 17 46 23 66 27 139 27 73 0 93 -4 138 -27 111 -57 167
-142 181 -279 4 -45 16 -97 25 -115 9 -18 12 -32 6 -32 -5 0 -10 -5 -10 -11 0
-24 24 -1 37 35 22 65 17 231 -9 247 -5 3 -9 8 -9 10 2 13 -13 49 -20 49 -5 0
-9 6 -9 14 0 21 -108 126 -130 126 -6 0 -10 4 -10 8 0 14 -112 45 -175 47 -38
2 -84 -5 -125 -17z"/>
<path d="M848 2083 c7 -3 16 -2 19 1 4 3 -2 6 -13 5 -11 0 -14 -3 -6 -6z"/>
<path d="M1257 2079 c7 -7 15 -10 18 -7 3 3 -2 9 -12 12 -14 6 -15 5 -6 -5z"/>
<path d="M1290 2063 c0 -11 38 -49 43 -42 2 2 -7 15 -20 28 -13 13 -23 20 -23
14z"/>
<path d="M811 2044 c0 -11 3 -14 6 -6 3 7 2 16 -1 19 -3 4 -6 -2 -5 -13z"/>
<path d="M777 1997 c-72 -137 -56 -310 40 -427 34 -43 104 -100 122 -100 20 0
8 -47 -39 -147 -22 -47 -40 -90 -40 -95 0 -5 15 -16 33 -24 56 -25 121 -64
142 -84 12 -11 31 -20 42 -20 12 0 23 -5 25 -12 2 -6 14 13 27 43 l23 54 10
-30 c5 -16 14 -41 19 -54 l10 -24 23 22 c12 11 26 21 30 21 5 0 25 14 46 30
21 17 43 30 49 30 17 0 58 29 65 45 2 7 -8 44 -24 82 -15 37 -35 91 -43 120
l-16 52 27 17 c42 27 103 101 116 139 6 19 5 19 -8 3 -7 -10 -21 -18 -30 -18
-10 0 -14 -5 -10 -11 5 -8 1 -8 -14 0 -11 6 -22 7 -24 3 -7 -17 -109 -83 -149
-98 -61 -22 -163 -21 -221 3 -124 49 -199 161 -199 295 0 41 6 93 14 116 8 23
11 40 7 37 -9 -6 -22 24 -15 35 3 4 -1 13 -8 18 -10 9 -17 3 -30 -21z"/>
<path d="M1383 1951 c12 -22 23 -38 25 -36 5 5 -26 63 -37 69 -5 4 0 -12 12
-33z"/>
<path d="M1411 1864 c0 -11 3 -14 6 -6 3 7 2 16 -1 19 -3 4 -6 -2 -5 -13z"/>
<path d="M840 1697 c0 -14 31 -69 36 -64 3 3 -4 20 -15 38 -12 19 -21 30 -21
26z"/>
<path d="M926 1579 c44 -35 74 -52 80 -47 4 4 -102 78 -112 78 -4 0 11 -14 32
-31z"/>
<path d="M1030 1520 c8 -5 22 -10 30 -10 13 0 13 1 0 10 -8 5 -22 10 -30 10
-13 0 -13 -1 0 -10z"/>
<path d="M1088 1513 c6 -2 18 -2 25 0 6 3 1 5 -13 5 -14 0 -19 -2 -12 -5z"/>
<path d="M787 1121 l-45 -68 86 18 c48 10 94 19 103 19 11 0 25 -24 45 -79 16
-44 33 -81 39 -83 5 -2 21 15 35 37 31 48 53 96 42 92 -8 -2 -70 31 -151 80
-42 25 -81 45 -97 48 -6 2 -32 -27 -57 -64z"/>
<path d="M1410 1182 c-8 -4 -30 -18 -48 -32 -19 -14 -39 -25 -45 -25 -7 -1
-11 -7 -9 -14 1 -7 -2 -10 -7 -7 -5 3 -19 -3 -32 -13 -13 -10 -34 -21 -46 -25
-13 -4 -23 -12 -23 -18 0 -15 62 -128 70 -128 4 0 18 36 31 81 13 45 30 83 37
86 11 5 128 -18 164 -32 12 -5 5 14 -25 64 -23 39 -44 71 -47 70 -3 0 -12 -3
-20 -7z"/>
<path d="M750 707 l0 -143 98 3 c53 1 102 2 107 2 6 1 11 36 11 81 2 88 21
128 74 155 37 19 123 19 159 1 49 -26 64 -60 65 -155 l1 -85 117 -1 117 0 3
133 c2 73 2 137 0 142 -2 6 -142 10 -378 10 l-374 0 0 -143z"/>
<path d="M1076 800 c-67 -21 -96 -76 -96 -180 l0 -70 -115 0 -115 0 0 -75 0
-75 309 0 c304 0 309 0 304 -20 -3 -11 0 -20 6 -20 6 0 11 9 11 20 0 18 7 20
60 20 33 0 60 5 61 10 0 6 0 38 1 73 l0 62 -126 3 -126 3 0 75 c0 84 -17 135
-52 157 -31 20 -86 28 -122 17z m116 -37 c32 -28 49 -68 36 -81 -7 -7 -8 -15
-1 -24 13 -17 8 -81 -6 -86 -6 -2 -11 -10 -11 -17 0 -9 -17 -16 -45 -21 -25
-3 -48 -11 -51 -16 -3 -5 -12 -4 -20 3 -8 6 -14 8 -14 5 0 -4 -9 -2 -20 4 -19
10 -45 55 -42 71 1 4 3 18 6 33 3 14 7 36 11 49 6 21 6 21 -9 3 -9 -11 -16
-28 -16 -39 0 -10 -4 -16 -9 -13 -4 3 -7 24 -5 48 8 97 125 145 196 81z m-372
-269 c0 -14 2 -14 22 0 12 9 34 16 48 16 l25 -1 -28 -23 c-27 -22 -27 -23 -9
-39 17 -16 20 -15 41 23 31 55 61 55 95 -2 l26 -43 0 43 c0 40 1 42 30 42 19
0 34 -7 42 -20 7 -11 16 -20 20 -20 5 0 8 9 8 20 0 13 7 20 20 20 13 0 20 -7
20 -20 l0 -20 20 20 c24 24 88 27 116 4 18 -14 17 -15 -16 -10 -23 4 -43 1
-55 -7 -22 -17 -12 -37 18 -36 17 1 18 2 5 6 -34 9 -18 25 22 22 29 -2 43 2
52 14 33 45 143 24 136 -26 -6 -45 -95 -59 -133 -20 -13 12 -15 13 -15 0 0
-31 -96 -31 -132 1 -16 14 -18 13 -18 0 0 -27 -37 -28 -61 -2 -28 30 -39 30
-39 1 0 -20 -5 -22 -37 -22 -21 1 -49 6 -63 12 -15 7 -29 7 -34 2 -14 -13
-103 -11 -112 2 -4 7 -9 7 -13 1 -3 -5 -16 -12 -28 -16 -22 -7 -23 -5 -23 43
0 48 2 51 25 51 16 0 25 -6 25 -16z"/>
<path d="M1053 758 c-18 -11 -33 -27 -33 -36 0 -14 2 -15 9 -3 8 12 12 12 24
2 10 -8 17 -8 21 -2 4 6 13 8 20 5 8 -3 17 0 21 6 3 6 1 9 -6 8 -6 -2 -13 2
-15 7 -3 7 11 11 33 10 27 0 37 -4 35 -14 -2 -11 0 -12 11 -3 8 7 17 9 20 5 4
-3 7 -3 7 0 0 12 -59 37 -87 36 -15 0 -43 -10 -60 -21z"/>
<path d="M1160 707 c14 -14 26 -24 28 -22 7 7 -9 25 -31 37 -20 10 -20 9 3
-15z"/>
<path d="M1192 711 c13 -22 28 -28 28 -11 0 5 -9 14 -20 20 -19 10 -20 10 -8
-9z"/>
<path d="M1050 668 c0 -23 3 -29 9 -19 8 12 4 51 -5 51 -2 0 -4 -15 -4 -32z"/>
<path d="M1135 670 c-3 -6 1 -7 9 -4 18 7 21 14 7 14 -6 0 -13 -4 -16 -10z"/>
<path d="M1070 635 c-9 -17 -10 -29 -3 -36 6 -6 10 -5 10 3 0 7 3 23 7 36 10
29 3 28 -14 -3z"/>
<path d="M1165 649 c-4 -6 -5 -12 -2 -15 2 -3 7 2 10 11 7 17 1 20 -8 4z"/>
<path d="M1098 603 c7 -3 16 -2 19 1 4 3 -2 6 -13 5 -11 0 -14 -3 -6 -6z"/>
<path d="M1045 569 c-4 -6 -5 -12 -2 -15 2 -3 7 2 10 11 7 17 1 20 -8 4z"/>
<path d="M1075 560 c6 -17 4 -21 -6 -15 -8 5 -11 4 -6 0 7 -8 47 -15 47 -8 0
2 -9 12 -21 24 l-21 21 7 -22z"/>
<path d="M1133 560 c-11 -16 -10 -18 1 -14 15 6 30 34 18 34 -4 0 -13 -9 -19
-20z"/>
<path d="M1175 570 c3 -5 8 -10 11 -10 2 0 4 5 4 10 0 6 -5 10 -11 10 -5 0 -7
-4 -4 -10z"/>
<path d="M1393 483 c-19 -7 -16 -40 4 -47 9 -4 23 0 31 8 13 12 13 18 2 30
-13 17 -17 18 -37 9z"/>
<path d="M950 379 c0 -5 5 -7 10 -4 6 3 10 8 10 11 0 2 -4 4 -10 4 -5 0 -10
-5 -10 -11z"/>
<path d="M995 373 c3 -8 5 -17 5 -19 0 -2 5 -4 10 -4 6 0 10 8 10 18 0 10 -7
19 -15 19 -10 0 -14 -6 -10 -14z"/>
<path d="M1050 370 c0 -11 7 -20 15 -20 8 0 15 9 15 20 0 11 -7 20 -15 20 -8
0 -15 -9 -15 -20z"/>
<path d="M1237 383 c-4 -3 -7 -13 -7 -20 0 -21 33 -11 36 10 2 17 -16 24 -29
10z"/>
<path d="M1396 375 c4 -8 8 -15 10 -15 2 0 4 7 4 15 0 8 -4 15 -10 15 -5 0 -7
-7 -4 -15z"/>
<path d="M1201 364 c0 -11 3 -14 6 -6 3 7 2 16 -1 19 -3 4 -6 -2 -5 -13z"/>
<path d="M828 353 c7 -3 16 -2 19 1 4 3 -2 6 -13 5 -11 0 -14 -3 -6 -6z"/>
</g>
</svg>
